<svg width="219" height="36" viewBox="0 0 219 36" fill="none" xmlns="http://www.w3.org/2000/svg">
<g filter="url(#filter0_d_0_1)">
<path d="M4.728 26.136C4.728 25.992 4.824 25.872 5.016 25.776C5.208 25.656 5.424 25.56 5.664 25.488C5.928 25.392 6.192 25.308 6.456 25.236C6.72 25.164 6.912 25.092 7.032 25.02V5.292C6.912 5.22 6.72 5.16 6.456 5.112C6.192 5.04 5.928 4.956 5.664 4.86C5.424 4.764 5.208 4.668 5.016 4.572C4.824 4.452 4.728 4.32 4.728 4.176C4.728 4.032 4.764 3.852 4.836 3.636C4.932 3.42 5.124 3.312 5.412 3.312H8.616C9.312 3.312 9.912 3.3 10.416 3.276C10.944 3.228 11.436 3.18 11.892 3.132C12.372 3.084 12.852 3.048 13.332 3.024C13.836 2.976 14.424 2.952 15.096 2.952C15.96 2.952 16.8 3.084 17.616 3.348C18.456 3.588 19.2 3.984 19.848 4.536C20.52 5.088 21.06 5.796 21.468 6.66C21.876 7.5 22.08 8.52 22.08 9.72C22.08 11.304 21.828 12.672 21.324 13.824C20.844 14.952 20.148 15.888 19.236 16.632C18.324 17.376 17.232 17.928 15.96 18.288C14.712 18.624 13.308 18.792 11.748 18.792C11.628 18.792 11.424 18.792 11.136 18.792C10.848 18.792 10.536 18.78 10.2 18.756V24.336C10.2 24.696 10.356 24.948 10.668 25.092C10.98 25.212 11.316 25.308 11.676 25.38C12.06 25.428 12.408 25.5 12.72 25.596C13.032 25.692 13.188 25.896 13.188 26.208C13.188 26.328 13.092 26.496 12.9 26.712C12.708 26.904 12.396 27 11.964 27H5.412C5.124 27 4.932 26.892 4.836 26.676C4.764 26.46 4.728 26.28 4.728 26.136ZM10.2 16.956C10.512 17.004 10.824 17.052 11.136 17.1C11.472 17.124 11.844 17.136 12.252 17.136C14.292 17.136 15.9 16.572 17.076 15.444C18.252 14.292 18.84 12.492 18.84 10.044C18.84 9.06 18.696 8.244 18.408 7.596C18.144 6.948 17.736 6.432 17.184 6.048C16.632 5.64 15.948 5.364 15.132 5.22C14.34 5.052 13.416 4.968 12.36 4.968C11.64 4.968 10.92 5.004 10.2 5.076V16.956ZM24.197 23.364C24.197 22.284 24.473 21.372 25.025 20.628C25.577 19.884 26.309 19.272 27.221 18.792C28.133 18.288 29.165 17.904 30.317 17.64C31.493 17.376 32.693 17.196 33.917 17.1V16.308C33.917 15.732 33.881 15.156 33.809 14.58C33.737 14.004 33.569 13.476 33.305 12.996C33.017 12.516 32.621 12.216 32.117 12.096C31.637 11.952 31.157 11.88 30.677 11.88C30.029 11.88 29.525 11.904 29.165 11.952C28.805 11.976 28.529 12.036 28.337 12.132C28.169 12.228 28.061 12.372 28.013 12.564C27.989 12.732 27.977 12.972 27.977 13.284C27.977 13.62 28.013 13.836 28.085 13.932C28.181 14.004 28.229 14.1 28.229 14.22C28.229 14.412 28.145 14.616 27.977 14.832C27.833 15.024 27.641 15.204 27.401 15.372C27.185 15.516 26.933 15.636 26.645 15.732C26.381 15.828 26.129 15.876 25.889 15.876C25.337 15.876 25.001 15.72 24.881 15.408C24.761 15.072 24.701 14.784 24.701 14.544C24.701 13.968 24.977 13.404 25.529 12.852C26.105 12.3 26.789 11.796 27.581 11.34C28.397 10.884 29.237 10.524 30.101 10.26C30.965 9.972 31.697 9.828 32.297 9.828C33.305 9.828 34.121 9.984 34.745 10.296C35.393 10.608 35.885 11.016 36.221 11.52C36.557 12.024 36.785 12.6 36.905 13.248C37.025 13.872 37.085 14.508 37.085 15.156V25.452C37.349 25.452 37.625 25.404 37.913 25.308C38.201 25.188 38.489 25.128 38.777 25.128C39.041 25.128 39.209 25.176 39.281 25.272C39.377 25.368 39.425 25.5 39.425 25.668C39.425 25.764 39.329 25.92 39.137 26.136C38.945 26.328 38.669 26.532 38.309 26.748C37.973 26.964 37.577 27.156 37.121 27.324C36.665 27.492 36.161 27.576 35.609 27.576C35.153 27.576 34.757 27.48 34.421 27.288C34.085 27.096 33.917 26.772 33.917 26.316V24.948C33.293 25.716 32.609 26.352 31.865 26.856C31.121 27.336 30.221 27.576 29.165 27.576C28.277 27.576 27.509 27.444 26.861 27.18C26.237 26.916 25.721 26.58 25.313 26.172C24.929 25.74 24.641 25.284 24.449 24.804C24.281 24.3 24.197 23.82 24.197 23.364ZM27.581 22.176C27.581 23.136 27.821 23.94 28.301 24.588C28.781 25.236 29.669 25.56 30.965 25.56C31.445 25.56 31.949 25.38 32.477 25.02C33.029 24.66 33.509 24.192 33.917 23.616V18.756C33.245 18.78 32.537 18.852 31.793 18.972C31.049 19.068 30.365 19.236 29.741 19.476C29.117 19.716 28.601 20.052 28.193 20.484C27.785 20.916 27.581 21.48 27.581 22.176ZM41.2821 12.78L40.9941 12.168C40.5381 12.12 40.1541 12.012 39.8421 11.844C39.5061 11.676 39.3381 11.376 39.3381 10.944C39.3381 10.848 39.4221 10.752 39.5901 10.656C39.7341 10.56 39.9741 10.512 40.3101 10.512H45.3501C45.6381 10.512 45.8421 10.608 45.9621 10.8C46.1061 10.992 46.1781 11.172 46.1781 11.34C46.1781 11.604 45.9981 11.796 45.6381 11.916C45.3021 12.012 44.8941 12.096 44.4141 12.168L48.3741 23.256L51.2901 15.012L50.4621 12.78L50.1741 12.168C49.7181 12.12 49.3701 12.012 49.1301 11.844C48.8901 11.676 48.7701 11.376 48.7701 10.944C48.7701 10.848 48.8661 10.752 49.0581 10.656C49.2741 10.56 49.5501 10.512 49.8861 10.512H54.8901C55.1541 10.512 55.3461 10.608 55.4661 10.8C55.6101 10.992 55.6821 11.172 55.6821 11.34C55.6821 11.604 55.4661 11.796 55.0341 11.916C54.6021 12.012 54.0861 12.096 53.4861 12.168L57.0861 23.184L61.0461 12.168C60.8061 12.12 60.5181 12.084 60.1821 12.06C59.8701 12.012 59.5581 11.964 59.2461 11.916C58.9581 11.844 58.7061 11.76 58.4901 11.664C58.2741 11.568 58.1661 11.46 58.1661 11.34C58.1661 11.172 58.2261 10.992 58.3461 10.8C58.4661 10.608 58.6581 10.512 58.9221 10.512H63.9981C64.3341 10.512 64.5861 10.56 64.7541 10.656C64.9221 10.752 65.0061 10.848 65.0061 10.944C65.0061 11.376 64.8141 11.676 64.4301 11.844C64.0701 12.012 63.6501 12.12 63.1701 12.168L57.4461 27.36H55.8621L52.2981 17.712L48.6261 27.36H47.1501L41.2821 12.78ZM65.6797 19.728C65.6797 18.336 65.8717 17.04 66.2557 15.84C66.6397 14.64 67.1797 13.596 67.8757 12.708C68.5957 11.82 69.4597 11.124 70.4677 10.62C71.4997 10.092 72.6397 9.828 73.8877 9.828C75.2557 9.828 76.3477 10.104 77.1637 10.656C77.9797 11.184 78.6037 11.868 79.0357 12.708C79.4917 13.548 79.7917 14.472 79.9357 15.48C80.0797 16.464 80.1637 17.424 80.1877 18.36C80.1877 18.72 80.0317 18.924 79.7197 18.972C79.4077 19.02 79.0837 19.044 78.7477 19.044H68.9917C69.0397 19.86 69.1597 20.652 69.3517 21.42C69.5677 22.188 69.8677 22.872 70.2517 23.472C70.6597 24.072 71.1637 24.564 71.7637 24.948C72.3877 25.308 73.1077 25.488 73.9237 25.488C74.8117 25.488 75.5317 25.428 76.0837 25.308C76.6357 25.164 77.0917 25.02 77.4517 24.876C77.8117 24.708 78.1117 24.564 78.3517 24.444C78.6157 24.3 78.8917 24.228 79.1797 24.228C79.5157 24.228 79.6837 24.36 79.6837 24.624C79.6837 24.936 79.5037 25.272 79.1437 25.632C78.7837 25.968 78.2917 26.292 77.6677 26.604C77.0677 26.892 76.3597 27.12 75.5437 27.288C74.7517 27.48 73.9117 27.576 73.0237 27.576C71.7517 27.576 70.6477 27.36 69.7117 26.928C68.7997 26.496 68.0437 25.92 67.4437 25.2C66.8437 24.48 66.3997 23.652 66.1117 22.716C65.8237 21.756 65.6797 20.76 65.6797 19.728ZM76.6237 17.172C76.5997 16.428 76.5397 15.732 76.4437 15.084C76.3477 14.412 76.1677 13.836 75.9037 13.356C75.6397 12.876 75.2557 12.492 74.7517 12.204C74.2477 11.916 73.5877 11.772 72.7717 11.772C71.5717 11.772 70.6597 12.312 70.0357 13.392C69.4357 14.448 69.0877 15.792 68.9917 17.424L76.6237 17.172ZM82.7957 26.28C82.7957 26.16 82.8677 26.052 83.0117 25.956C83.1797 25.836 83.3717 25.728 83.5877 25.632C83.8037 25.536 84.0197 25.452 84.2357 25.38C84.4517 25.284 84.6077 25.212 84.7037 25.164V3.276C84.1757 3.204 83.7197 3.096 83.3357 2.952C82.9757 2.808 82.7957 2.664 82.7957 2.52C82.7957 2.184 82.9397 1.92 83.2277 1.728C83.5157 1.536 83.8637 1.38 84.2717 1.26C84.7037 1.14 85.1477 1.068 85.6037 1.044C86.0837 0.995999 86.5157 0.971998 86.8997 0.971998C87.3557 0.971998 87.6317 1.08 87.7277 1.296V24.336C87.7277 24.696 87.8597 24.948 88.1237 25.092C88.3877 25.212 88.6757 25.308 88.9877 25.38C89.3237 25.428 89.6237 25.5 89.8877 25.596C90.1517 25.692 90.2837 25.896 90.2837 26.208C90.2837 26.736 89.8757 27 89.0597 27H83.4797C83.1917 27 82.9997 26.916 82.9037 26.748C82.8317 26.58 82.7957 26.424 82.7957 26.28Z" fill="black"/>
<path d="M92.5835 26.136C92.5835 25.992 92.6795 25.872 92.8715 25.776C93.0635 25.656 93.2795 25.56 93.5195 25.488C93.7835 25.392 94.0475 25.308 94.3115 25.236C94.5755 25.164 94.7675 25.092 94.8875 25.02V5.292C94.7675 5.22 94.5755 5.16 94.3115 5.112C94.0475 5.04 93.7835 4.956 93.5195 4.86C93.2795 4.764 93.0635 4.668 92.8715 4.572C92.6795 4.452 92.5835 4.32 92.5835 4.176C92.5835 4.032 92.6195 3.852 92.6915 3.636C92.7875 3.42 92.9795 3.312 93.2675 3.312H96.4715C97.1675 3.312 97.7195 3.3 98.1275 3.276C98.5595 3.252 98.9435 3.228 99.2795 3.204C99.6395 3.156 100.011 3.12 100.395 3.096C100.803 3.072 101.343 3.06 102.015 3.06C102.879 3.06 103.755 3.144 104.643 3.312C105.531 3.48 106.335 3.78 107.055 4.212C107.775 4.644 108.363 5.244 108.819 6.012C109.275 6.756 109.503 7.728 109.503 8.928C109.503 9.936 109.119 10.944 108.351 11.952C107.583 12.936 106.527 13.692 105.183 14.22C106.287 14.244 107.223 14.436 107.991 14.796C108.759 15.156 109.383 15.6 109.863 16.128C110.367 16.632 110.727 17.184 110.943 17.784C111.183 18.36 111.303 18.888 111.303 19.368C111.303 20.928 110.991 22.212 110.367 23.22C109.743 24.204 108.939 24.984 107.955 25.56C106.971 26.112 105.867 26.496 104.643 26.712C103.419 26.904 102.207 27 101.007 27H100.467H93.2675C92.9795 27 92.7875 26.892 92.6915 26.676C92.6195 26.46 92.5835 26.28 92.5835 26.136ZM98.0555 13.752C98.3675 13.8 98.6795 13.824 98.9915 13.824C99.3035 13.824 99.6635 13.824 100.071 13.824C101.151 13.824 102.075 13.704 102.843 13.464C103.635 13.224 104.283 12.912 104.787 12.528C105.291 12.12 105.663 11.652 105.903 11.124C106.143 10.596 106.263 10.056 106.263 9.504C106.263 8.64 106.167 7.92 105.975 7.344C105.783 6.768 105.447 6.312 104.967 5.976C104.487 5.616 103.839 5.364 103.023 5.22C102.207 5.052 101.175 4.968 99.9275 4.968C99.3035 4.968 98.6795 5.004 98.0555 5.076V13.752ZM98.0555 24.876C98.6075 24.972 99.2075 25.032 99.8555 25.056C100.527 25.08 101.175 25.092 101.799 25.092C102.495 25.092 103.191 25.008 103.887 24.84C104.607 24.648 105.267 24.36 105.867 23.976C106.467 23.568 106.947 23.04 107.307 22.392C107.691 21.744 107.883 20.952 107.883 20.016C107.883 18.456 107.463 17.316 106.623 16.596C105.807 15.876 104.331 15.516 102.195 15.516H101.691H99.7835C99.4715 15.516 99.1715 15.528 98.8835 15.552C98.5955 15.552 98.3195 15.564 98.0555 15.588V24.876ZM114.055 19.728C114.055 18.336 114.247 17.04 114.631 15.84C115.015 14.64 115.555 13.596 116.251 12.708C116.971 11.82 117.835 11.124 118.843 10.62C119.875 10.092 121.015 9.828 122.263 9.828C123.631 9.828 124.723 10.104 125.539 10.656C126.355 11.184 126.979 11.868 127.411 12.708C127.867 13.548 128.167 14.472 128.311 15.48C128.455 16.464 128.539 17.424 128.563 18.36C128.563 18.72 128.407 18.924 128.095 18.972C127.783 19.02 127.459 19.044 127.123 19.044H117.367C117.415 19.86 117.535 20.652 117.727 21.42C117.943 22.188 118.243 22.872 118.627 23.472C119.035 24.072 119.539 24.564 120.139 24.948C120.763 25.308 121.483 25.488 122.299 25.488C123.187 25.488 123.907 25.428 124.459 25.308C125.011 25.164 125.467 25.02 125.827 24.876C126.187 24.708 126.487 24.564 126.727 24.444C126.991 24.3 127.267 24.228 127.555 24.228C127.891 24.228 128.059 24.36 128.059 24.624C128.059 24.936 127.879 25.272 127.519 25.632C127.159 25.968 126.667 26.292 126.043 26.604C125.443 26.892 124.735 27.12 123.919 27.288C123.127 27.48 122.287 27.576 121.399 27.576C120.127 27.576 119.023 27.36 118.087 26.928C117.175 26.496 116.419 25.92 115.819 25.2C115.219 24.48 114.775 23.652 114.487 22.716C114.199 21.756 114.055 20.76 114.055 19.728ZM124.999 17.172C124.975 16.428 124.915 15.732 124.819 15.084C124.723 14.412 124.543 13.836 124.279 13.356C124.015 12.876 123.631 12.492 123.127 12.204C122.623 11.916 121.963 11.772 121.147 11.772C119.947 11.772 119.035 12.312 118.411 13.392C117.811 14.448 117.463 15.792 117.367 17.424L124.999 17.172ZM131.099 19.98C131.099 18.804 131.279 17.616 131.639 16.416C132.023 15.192 132.587 14.1 133.331 13.14C134.099 12.156 135.047 11.364 136.175 10.764C137.327 10.14 138.683 9.828 140.243 9.828C141.251 9.828 142.187 9.96 143.051 10.224L142.871 6.912V3.528C142.607 3.48 142.307 3.432 141.971 3.384C141.635 3.336 141.323 3.276 141.035 3.204C140.747 3.132 140.495 3.06 140.279 2.988C140.087 2.916 139.991 2.844 139.991 2.772C139.991 2.46 140.135 2.196 140.423 1.98C140.735 1.74 141.131 1.548 141.611 1.404C142.115 1.26 142.667 1.152 143.267 1.08C143.867 1.008 144.467 0.971998 145.067 0.971998C145.235 0.971998 145.403 0.983998 145.571 1.008C145.739 1.032 145.847 1.128 145.895 1.296V25.452C146.135 25.452 146.387 25.416 146.651 25.344C146.915 25.248 147.191 25.2 147.479 25.2C147.695 25.2 147.839 25.248 147.911 25.344C147.983 25.44 148.019 25.572 148.019 25.74C148.019 25.836 147.935 25.992 147.767 26.208C147.599 26.4 147.359 26.604 147.047 26.82C146.759 27.012 146.399 27.18 145.967 27.324C145.535 27.492 145.043 27.576 144.491 27.576C143.531 27.576 143.051 27.156 143.051 26.316V25.38C142.379 26.076 141.647 26.616 140.855 27C140.063 27.384 139.103 27.576 137.975 27.576C137.087 27.576 136.223 27.396 135.383 27.036C134.567 26.7 133.835 26.208 133.187 25.56C132.563 24.912 132.059 24.12 131.675 23.184C131.291 22.248 131.099 21.18 131.099 19.98ZM139.559 25.596C140.087 25.596 140.651 25.488 141.251 25.272C141.851 25.032 142.403 24.684 142.907 24.228L142.871 13.284C142.655 12.972 142.379 12.732 142.043 12.564C141.707 12.372 141.347 12.228 140.963 12.132C140.603 12.036 140.243 11.976 139.883 11.952C139.523 11.928 139.223 11.916 138.983 11.916C137.375 11.916 136.235 12.48 135.563 13.608C134.915 14.736 134.591 16.356 134.591 18.468C134.591 20.58 134.999 22.296 135.815 23.616C136.655 24.936 137.903 25.596 139.559 25.596ZM150.411 26.28C150.411 26.16 150.483 26.052 150.627 25.956C150.795 25.836 150.987 25.728 151.203 25.632C151.419 25.536 151.635 25.452 151.851 25.38C152.067 25.284 152.223 25.212 152.319 25.164V13.32C151.839 13.224 151.347 13.068 150.843 12.852C150.339 12.636 150.087 12.444 150.087 12.276C150.087 12.036 150.231 11.796 150.519 11.556C150.807 11.292 151.155 11.064 151.563 10.872C151.995 10.68 152.451 10.524 152.931 10.404C153.411 10.26 153.831 10.188 154.191 10.188C154.719 10.188 155.007 10.308 155.055 10.548V12.384C155.895 11.64 156.795 11.028 157.755 10.548C158.739 10.068 159.843 9.828 161.067 9.828C161.907 9.828 162.639 9.948 163.263 10.188C163.911 10.404 164.475 10.824 164.955 11.448C165.435 12.072 165.735 12.696 165.855 13.32C165.999 13.92 166.071 14.532 166.071 15.156V24.552C166.071 24.84 166.179 25.044 166.395 25.164C166.635 25.26 166.887 25.344 167.151 25.416C167.415 25.488 167.655 25.572 167.871 25.668C168.087 25.764 168.195 25.944 168.195 26.208C168.195 26.328 168.099 26.496 167.907 26.712C167.715 26.904 167.403 27 166.971 27H161.751C161.463 27 161.271 26.916 161.175 26.748C161.103 26.58 161.067 26.424 161.067 26.28C161.067 26.16 161.139 26.052 161.283 25.956C161.451 25.836 161.631 25.728 161.823 25.632C162.039 25.536 162.243 25.452 162.435 25.38C162.651 25.284 162.807 25.212 162.903 25.164V16.524C162.903 14.844 162.591 13.656 161.967 12.96C161.367 12.264 160.599 11.916 159.663 11.916C158.943 11.916 158.187 12.06 157.395 12.348C156.627 12.612 155.967 12.996 155.415 13.5V24.336C155.415 24.696 155.535 24.948 155.775 25.092C156.039 25.212 156.327 25.308 156.639 25.38C156.951 25.452 157.227 25.536 157.467 25.632C157.731 25.728 157.863 25.92 157.863 26.208C157.863 26.736 157.455 27 156.639 27H151.095C150.807 27 150.615 26.916 150.519 26.748C150.447 26.58 150.411 26.424 150.411 26.28ZM170.201 23.364C170.201 22.284 170.477 21.372 171.029 20.628C171.581 19.884 172.313 19.272 173.225 18.792C174.137 18.288 175.169 17.904 176.321 17.64C177.497 17.376 178.697 17.196 179.921 17.1V16.308C179.921 15.732 179.885 15.156 179.813 14.58C179.741 14.004 179.573 13.476 179.309 12.996C179.021 12.516 178.625 12.216 178.121 12.096C177.641 11.952 177.161 11.88 176.681 11.88C176.033 11.88 175.529 11.904 175.169 11.952C174.809 11.976 174.533 12.036 174.341 12.132C174.173 12.228 174.065 12.372 174.017 12.564C173.993 12.732 173.981 12.972 173.981 13.284C173.981 13.62 174.017 13.836 174.089 13.932C174.185 14.004 174.233 14.1 174.233 14.22C174.233 14.412 174.149 14.616 173.981 14.832C173.837 15.024 173.645 15.204 173.405 15.372C173.189 15.516 172.937 15.636 172.649 15.732C172.385 15.828 172.133 15.876 171.893 15.876C171.341 15.876 171.005 15.72 170.885 15.408C170.765 15.072 170.705 14.784 170.705 14.544C170.705 13.968 170.981 13.404 171.533 12.852C172.109 12.3 172.793 11.796 173.585 11.34C174.401 10.884 175.241 10.524 176.105 10.26C176.969 9.972 177.701 9.828 178.301 9.828C179.309 9.828 180.125 9.984 180.749 10.296C181.397 10.608 181.889 11.016 182.225 11.52C182.561 12.024 182.789 12.6 182.909 13.248C183.029 13.872 183.089 14.508 183.089 15.156V25.452C183.353 25.452 183.629 25.404 183.917 25.308C184.205 25.188 184.493 25.128 184.781 25.128C185.045 25.128 185.213 25.176 185.285 25.272C185.381 25.368 185.429 25.5 185.429 25.668C185.429 25.764 185.333 25.92 185.141 26.136C184.949 26.328 184.673 26.532 184.313 26.748C183.977 26.964 183.581 27.156 183.125 27.324C182.669 27.492 182.165 27.576 181.613 27.576C181.157 27.576 180.761 27.48 180.425 27.288C180.089 27.096 179.921 26.772 179.921 26.316V24.948C179.297 25.716 178.613 26.352 177.869 26.856C177.125 27.336 176.225 27.576 175.169 27.576C174.281 27.576 173.513 27.444 172.865 27.18C172.241 26.916 171.725 26.58 171.317 26.172C170.933 25.74 170.645 25.284 170.453 24.804C170.285 24.3 170.201 23.82 170.201 23.364ZM173.585 22.176C173.585 23.136 173.825 23.94 174.305 24.588C174.785 25.236 175.673 25.56 176.969 25.56C177.449 25.56 177.953 25.38 178.481 25.02C179.033 24.66 179.513 24.192 179.921 23.616V18.756C179.249 18.78 178.541 18.852 177.797 18.972C177.053 19.068 176.369 19.236 175.745 19.476C175.121 19.716 174.605 20.052 174.197 20.484C173.789 20.916 173.585 21.48 173.585 22.176ZM187.286 26.28C187.286 26.16 187.358 26.052 187.502 25.956C187.67 25.836 187.862 25.728 188.078 25.632C188.294 25.536 188.51 25.452 188.726 25.38C188.942 25.284 189.098 25.212 189.194 25.164V13.32C188.714 13.224 188.222 13.068 187.718 12.852C187.214 12.636 186.962 12.444 186.962 12.276C186.962 12.036 187.106 11.796 187.394 11.556C187.682 11.292 188.03 11.064 188.438 10.872C188.87 10.68 189.326 10.524 189.806 10.404C190.286 10.26 190.706 10.188 191.066 10.188C191.258 10.188 191.438 10.212 191.606 10.26C191.774 10.308 191.882 10.404 191.93 10.548V13.896C192.434 12.768 193.082 11.808 193.874 11.016C194.69 10.224 195.638 9.828 196.718 9.828C196.934 9.828 197.198 9.864 197.51 9.936C197.846 10.008 198.17 10.152 198.482 10.368C198.818 10.56 199.094 10.836 199.31 11.196C199.55 11.556 199.67 12.012 199.67 12.564C199.67 12.78 199.598 12.996 199.454 13.212C199.31 13.404 199.13 13.584 198.914 13.752C198.698 13.896 198.458 14.028 198.194 14.148C197.954 14.244 197.714 14.304 197.474 14.328C197.282 14.328 197.114 14.292 196.97 14.22C196.85 14.124 196.766 13.908 196.718 13.572C196.598 13.02 196.418 12.66 196.178 12.492C195.962 12.324 195.626 12.24 195.17 12.24C194.834 12.24 194.498 12.408 194.162 12.744C193.826 13.08 193.514 13.5 193.226 14.004C192.962 14.484 192.734 15 192.542 15.552C192.374 16.08 192.29 16.548 192.29 16.956V24.408C192.29 24.744 192.47 24.972 192.83 25.092C193.19 25.188 193.574 25.272 193.982 25.344C194.414 25.392 194.798 25.476 195.134 25.596C195.494 25.692 195.674 25.896 195.674 26.208C195.674 26.736 195.266 27 194.45 27H187.97C187.682 27 187.49 26.916 187.394 26.748C187.322 26.58 187.286 26.424 187.286 26.28ZM201.167 25.416C201.167 25.08 201.239 24.756 201.383 24.444C201.527 24.108 201.815 23.664 202.247 23.112C202.607 22.632 203.063 22.068 203.615 21.42C204.191 20.748 204.779 20.04 205.379 19.296C206.003 18.552 206.627 17.796 207.251 17.028C207.875 16.26 208.439 15.552 208.943 14.904C209.447 14.256 209.855 13.692 210.167 13.212C210.479 12.732 210.635 12.396 210.635 12.204C210.635 12.012 210.479 11.916 210.167 11.916C208.559 11.916 207.347 11.964 206.531 12.06C205.739 12.132 205.175 12.24 204.839 12.384C204.527 12.504 204.347 12.66 204.299 12.852C204.251 13.02 204.155 13.212 204.011 13.428C203.987 13.524 203.927 13.704 203.831 13.968C203.759 14.232 203.651 14.508 203.507 14.796C203.387 15.06 203.243 15.3 203.075 15.516C202.907 15.732 202.715 15.84 202.499 15.84C202.259 15.84 202.055 15.768 201.887 15.624C201.719 15.48 201.635 15.324 201.635 15.156C201.635 14.676 201.683 14.196 201.779 13.716C201.899 13.236 201.959 12.648 201.959 11.952V11.412C201.959 11.196 201.971 11.004 201.995 10.836C202.019 10.668 202.103 10.56 202.247 10.512H213.515C213.683 10.512 213.887 10.704 214.127 11.088C214.391 11.472 214.523 11.868 214.523 12.276C214.523 12.54 214.451 12.78 214.307 12.996C212.483 15.468 210.767 17.64 209.159 19.512C207.575 21.384 206.255 23.04 205.199 24.48C204.959 24.816 204.839 25.056 204.839 25.2C204.839 25.32 204.959 25.38 205.199 25.38C205.703 25.38 206.291 25.38 206.963 25.38C207.635 25.38 208.283 25.356 208.907 25.308C209.531 25.26 210.095 25.188 210.599 25.092C211.103 24.972 211.439 24.804 211.607 24.588C211.871 24.276 212.075 23.94 212.219 23.58C212.387 23.22 212.531 22.884 212.651 22.572C212.771 22.26 212.879 22.008 212.975 21.816C213.095 21.6 213.227 21.492 213.371 21.492C213.563 21.492 213.791 21.552 214.055 21.672C214.343 21.768 214.487 21.924 214.487 22.14V23.22C214.487 23.58 214.475 23.976 214.451 24.408C214.451 24.84 214.439 25.248 214.415 25.632C214.415 26.016 214.391 26.34 214.343 26.604C214.295 26.844 214.235 26.976 214.163 27H202.499C202.307 27 202.127 26.928 201.959 26.784C201.791 26.64 201.647 26.484 201.527 26.316C201.407 26.124 201.311 25.944 201.239 25.776C201.191 25.608 201.167 25.488 201.167 25.416Z" fill="#FF9900"/>
</g>
<defs>
<filter id="filter0_d_0_1" x="0.728001" y="0.971998" width="217.795" height="34.604" filterUnits="userSpaceOnUse" color-interpolation-filters="sRGB">
<feFlood flood-opacity="0" result="BackgroundImageFix"/>
<feColorMatrix in="SourceAlpha" type="matrix" values="0 0 0 0 0 0 0 0 0 0 0 0 0 0 0 0 0 0 127 0" result="hardAlpha"/>
<feOffset dy="4"/>
<feGaussianBlur stdDeviation="2"/>
<feComposite in2="hardAlpha" operator="out"/>
<feColorMatrix type="matrix" values="0 0 0 0 0 0 0 0 0 0 0 0 0 0 0 0 0 0 0.25 0"/>
<feBlend mode="normal" in2="BackgroundImageFix" result="effect1_dropShadow_0_1"/>
<feBlend mode="normal" in="SourceGraphic" in2="effect1_dropShadow_0_1" result="shape"/>
</filter>
</defs>
</svg>
